<?xml version="1.0" encoding="UTF-8" standalone="no"?><!DOCTYPE svg PUBLIC "-//W3C//DTD SVG 1.1//EN" "http://www.w3.org/Graphics/SVG/1.1/DTD/svg11.dtd"><svg width="100%" height="100%" viewBox="0 0 438 438" version="1.1" xmlns="http://www.w3.org/2000/svg" xmlns:xlink="http://www.w3.org/1999/xlink" xml:space="preserve" xmlns:serif="http://www.serif.com/" style="fill-rule:evenodd;clip-rule:evenodd;stroke-linejoin:round;stroke-miterlimit:2;"><path d="M151.011,267.095c3.855,-4.14 9.872,-10.978 22.989,-24.095l24,-25l-12,-12c-6,-7 -12,-13 -13,-15c-3,-5 0,-14 5,-17c3,-2 5,-2 9,-2l5,1l13,13l13,12l25,-24c11.866,-11.41 18.317,-17.612 22.299,-21.079c3.518,-3.063 6.58,-6.188 11.332,-6.188c7.436,-0 14.177,5.961 14.177,13.397c-0,2.196 -0.255,5.195 -2.808,7.87l-50,50l13,13c9.388,9.388 13.292,14.076 13.919,17.985c0.301,1.14 0.462,2.338 0.462,3.573c0,7.695 -6.247,13.942 -13.942,13.942c-5.109,-0 -8.34,-3.516 -12.008,-6.859c-2.538,-2.312 -5.571,-5.459 -9.431,-9.641l-11,-12l-25,24c-11.235,12.099 -22.469,21.957 -25.959,25.057c-2.11,1.874 -6.135,3.796 -9.214,3.796c-7.223,0 -13.088,-5.864 -13.088,-13.088c0,-4.018 2.192,-7.363 5.272,-10.67Z" style="fill:#f0c219;fill-rule:nonzero;"/><path d="M218.433,302.363c-0.137,0.222 -0.281,0.435 -0.433,0.637c-1,1 -13,14 -27,27c-26,26 -31,30 -43,34c-8,3 -25,4 -33,1c-13,-3 -26,-11 -33,-20c-17,-23 -17,-53 0,-76c2,-2 15,-16 29,-29l25,-24l0.122,0c2.417,-2.342 5.718,-3.785 9.356,-3.785c7.4,-0 13.409,5.974 13.409,13.333c-0,3.659 -1.485,6.975 -3.887,9.384l0,0.068l-27,27c-24,25 -27,28 -29,33c-6,16 1,32 15,41c4.765,3.063 6.277,3.609 15.277,3.609c8,0 9.723,-1.609 13.723,-3.609c3,-1 14,-12 30,-27c9.668,-10.412 19.336,-19.717 24.479,-24.214c2.51,-2.999 6.28,-4.907 10.492,-4.907c7.549,0 13.677,6.129 13.677,13.677c0,3.353 -1.209,6.426 -3.215,8.807Zm-1.497,-167.232c0.021,-0.045 0.042,-0.088 0.064,-0.131c3,-4 51,-51 58,-56c9,-6 17,-8 30,-9c12,-0 20,1 30,6c15,7 27,23 31,40c2,7 1,22 0,29c-4,14 -8,19 -33,45c-14,13 -26,26 -28,27c-0.328,0.262 -7.556,6.641 -12.191,6.641c-7.47,-0 -13.535,-6.065 -13.535,-13.535c-0,-4.22 1.935,-7.992 4.966,-10.475c4.256,-4.526 13.907,-14.778 24.76,-25.631c28,-28 29,-31 31,-41c0,-7 -2,-16 -7,-23c-6,-8 -19,-14 -29,-12c-11,1 -14,4 -41,30c-13.281,13.773 -18.219,18.87 -22.453,23.172c-2.712,2.755 -9.377,6.933 -13.857,6.933c-7.483,0 -13.559,-6.076 -13.559,-13.559c-0,-3.656 1.45,-6.976 3.805,-9.415Zm194.07,20.047c-3.102,-4.58 -4.625,-12.465 -4.662,-19.787c-0.022,-4.204 0.656,-105.391 0.656,-105.391l-61,-0c-59,-0 -60,-0 -64,-2c-5,-3 -7,-7 -7,-12c0,-6 2,-11 7,-13c4,-2 7,-2.056 73,-2c22.831,0.019 56.906,-0.388 73.747,-0.012c6.7,0.149 7.26,0.905 7.253,6.957c-0.048,40.602 0,73.055 0,73.055c0,65 0,70 -2,73c-4,7 -18.062,8.461 -22.994,1.178Z" style="fill:#f15e3f;fill-rule:nonzero;"/><path d="M113.685,1l4.315,0c104,0 106,0 109,2c9,5 9,18 1,24l-3,3l-195,0l0,377l377,0l0,-97c0,-93 0,-98 2,-101c5,-10 20,-10 25,1c2,4 2,6 2,109c0,101 0.307,105.286 0,112.158c-0.177,3.952 -0.934,4.585 -6.406,4.592c-5.073,0.006 -9.594,0.25 -210.594,0.25c-113,0 -201.318,0.259 -205.872,0.283c-8.568,0.045 -10.489,-1.006 -11.128,-9.283c-0.172,-2.229 -1,-36 -1,-209c0,-127.272 -0.167,-191.331 0.112,-208.071c0.124,-7.44 1.338,-8.665 9.311,-8.941c16.373,0.088 103.262,0.012 103.262,0.012l-0,0Z" style="fill:#12294c;fill-rule:nonzero;"/></svg>